<svg xmlns="http://www.w3.org/2000/svg" width="1440" height="1000" viewBox="0 0 1440 1000">
  <defs>
    <filter id="shadow" x="-20%" y="-20%" width="140%" height="140%"><feDropShadow dx="0" dy="12" stdDeviation="24" flood-color="#17233d" flood-opacity=".18"/></filter>
    <style>
      text { font-family: "Microsoft YaHei", "PingFang SC", Arial, sans-serif; fill: #1f2937; }
      .muted { fill:#8a93a3; } .small { font-size:12px; } .body { font-size:14px; } .title { font-size:20px; font-weight:700; }
      .section { font-size:15px; font-weight:700; } .code { font-size:11px; fill:#7b8494; }
    </style>
  </defs>

  <!-- dimmed role-management page -->
  <rect width="1440" height="1000" fill="#eef2f7"/>
  <rect x="0" y="0" width="220" height="1000" fill="#17233d"/>
  <text x="32" y="52" fill="#fff" font-size="20" font-weight="700">JDM ADMIN</text>
  <rect x="16" y="108" width="188" height="44" rx="6" fill="#2d68ff" opacity=".65"/>
  <text x="48" y="136" fill="#fff" font-size="14">系统管理</text>
  <rect x="248" y="42" width="1156" height="70" rx="8" fill="#fff"/>
  <text x="276" y="84" font-size="18" font-weight="700">角色管理</text>
  <rect x="248" y="136" width="1156" height="124" rx="8" fill="#fff"/>
  <rect x="272" y="164" width="240" height="36" rx="5" fill="#f5f7fa"/>
  <rect x="528" y="164" width="240" height="36" rx="5" fill="#f5f7fa"/>
  <rect x="248" y="280" width="1156" height="610" rx="8" fill="#fff"/>
  <g opacity=".2"><rect x="272" y="330" width="1108" height="1" fill="#6b7280"/><rect x="272" y="390" width="1108" height="1" fill="#6b7280"/><rect x="272" y="450" width="1108" height="1" fill="#6b7280"/></g>
  <rect width="1440" height="1000" fill="#15213a" opacity=".38"/>

  <!-- modal -->
  <g filter="url(#shadow)">
    <rect x="120" y="55" width="1200" height="890" rx="14" fill="#fff"/>
  </g>

  <!-- header -->
  <text x="154" y="98" class="title">分配菜单权限</text>
  <rect x="318" y="75" width="100" height="30" rx="15" fill="#eaf2ff"/>
  <text x="368" y="95" text-anchor="middle" font-size="13" font-weight="700" fill="#1677ff">运营管理员</text>
  <text x="434" y="95" class="small muted">角色编码：operator</text>
  <text x="1282" y="96" font-size="24" class="muted">×</text>
  <line x1="120" y1="124" x2="1320" y2="124" stroke="#edf0f4"/>
  <rect x="154" y="142" width="1132" height="42" rx="7" fill="#eef6ff"/>
  <circle cx="178" cy="163" r="9" fill="#1677ff"/>
  <text x="178" y="167" text-anchor="middle" font-size="11" fill="#fff" font-weight="700">i</text>
  <text x="198" y="168" class="body" fill="#31567f">为该角色配置可访问的菜单及页面操作权限</text>

  <!-- left column -->
  <text x="154" y="222" class="section">权限菜单</text>
  <text x="229" y="222" class="small muted">共 36 项</text>
  <rect x="154" y="240" width="354" height="38" rx="7" fill="#fff" stroke="#d9dee8"/>
  <circle cx="176" cy="259" r="7" fill="none" stroke="#8b95a5" stroke-width="1.5"/><line x1="181" y1="264" x2="187" y2="270" stroke="#8b95a5" stroke-width="1.5"/>
  <text x="200" y="264" class="body muted">搜索菜单名称或权限标识</text>
  <rect x="522" y="240" width="198" height="38" rx="7" fill="#f3f5f8"/>
  <rect x="525" y="243" width="60" height="32" rx="5" fill="#fff" stroke="#d9dee8"/>
  <text x="555" y="264" text-anchor="middle" class="small" fill="#1677ff">全部</text>
  <text x="621" y="264" text-anchor="middle" class="small muted">已选择</text>
  <text x="687" y="264" text-anchor="middle" class="small muted">未选择</text>
  <rect x="734" y="240" width="76" height="38" rx="7" fill="#fff" stroke="#d9dee8"/><text x="772" y="264" text-anchor="middle" class="small">展开全部</text>
  <rect x="820" y="240" width="76" height="38" rx="7" fill="#fff" stroke="#d9dee8"/><text x="858" y="264" text-anchor="middle" class="small">收起全部</text>

  <!-- tree container -->
  <rect x="154" y="294" width="742" height="570" rx="9" fill="#fff" stroke="#e2e7ef"/>
  <!-- dashboard -->
  <rect x="170" y="310" width="710" height="48" rx="6" fill="#fafbfd"/>
  <path d="M188 329 l5 5 5-5" fill="none" stroke="#7b8494" stroke-width="1.5"/>
  <rect x="208" y="323" width="18" height="18" rx="4" fill="#1677ff"/><path d="M212 332h10M217 327v10" stroke="#fff" stroke-width="1.5"/>
  <rect x="238" y="324" width="16" height="16" rx="3" fill="#1677ff"/><path d="M242 332l3 3 6-7" fill="none" stroke="#fff" stroke-width="1.5"/>
  <text x="266" y="338" class="body" font-weight="600">工作台</text><text x="322" y="338" class="code">dashboard</text>
  <text x="800" y="338" class="small" fill="#1677ff">全选本组</text><text x="862" y="338" text-anchor="end" class="small muted">2 项</text>
  <!-- system group -->
  <rect x="170" y="366" width="710" height="48" rx="6" fill="#f3f8ff"/>
  <path d="M188 385 l5 5 5-5" fill="none" stroke="#1677ff" stroke-width="1.5"/>
  <rect x="208" y="379" width="18" height="18" rx="4" fill="#1677ff"/>
  <rect x="238" y="380" width="16" height="16" rx="3" fill="#fff" stroke="#1677ff"/><rect x="241" y="386" width="10" height="4" rx="1" fill="#1677ff"/>
  <text x="266" y="394" class="body" font-weight="700">系统管理</text><text x="336" y="394" class="code">system</text>
  <text x="800" y="394" class="small" fill="#1677ff">全选本组</text><text x="862" y="394" text-anchor="end" class="small muted">18 项</text>
  <line x1="216" y1="414" x2="216" y2="628" stroke="#dce5f2"/>
  <!-- system children -->
  <g>
    <line x1="216" y1="438" x2="242" y2="438" stroke="#dce5f2"/><rect x="250" y="428" width="16" height="16" rx="3" fill="#1677ff"/><path d="M254 436l3 3 6-7" fill="none" stroke="#fff" stroke-width="1.5"/><text x="280" y="441" class="body">用户管理</text><rect x="352" y="423" width="82" height="24" rx="12" fill="#f1f3f6"/><text x="393" y="439" text-anchor="middle" class="code">system:user</text><text x="862" y="441" text-anchor="end" class="small muted">5 项</text>
    <line x1="216" y1="486" x2="242" y2="486" stroke="#dce5f2"/><rect x="250" y="476" width="16" height="16" rx="3" fill="#1677ff"/><path d="M254 484l3 3 6-7" fill="none" stroke="#fff" stroke-width="1.5"/><text x="280" y="489" class="body">角色管理</text><rect x="352" y="471" width="82" height="24" rx="12" fill="#f1f3f6"/><text x="393" y="487" text-anchor="middle" class="code">system:role</text><text x="862" y="489" text-anchor="end" class="small muted">5 项</text>
    <line x1="216" y1="534" x2="242" y2="534" stroke="#dce5f2"/><rect x="250" y="524" width="16" height="16" rx="3" fill="#fff" stroke="#1677ff"/><rect x="253" y="530" width="10" height="4" rx="1" fill="#1677ff"/><text x="280" y="537" class="body">菜单管理</text><rect x="352" y="519" width="86" height="24" rx="12" fill="#f1f3f6"/><text x="395" y="535" text-anchor="middle" class="code">system:menu</text><text x="862" y="537" text-anchor="end" class="small muted">5 项</text>
    <line x1="216" y1="582" x2="242" y2="582" stroke="#dce5f2"/><rect x="250" y="572" width="16" height="16" rx="3" fill="#fff" stroke="#b5bdc9"/><text x="280" y="585" class="body">部门管理</text><rect x="352" y="567" width="86" height="24" rx="12" fill="#f1f3f6"/><text x="395" y="583" text-anchor="middle" class="code">system:dept</text><text x="862" y="585" text-anchor="end" class="small muted">3 项</text>
  </g>
  <!-- log group -->
  <rect x="170" y="636" width="710" height="48" rx="6" fill="#fafbfd"/>
  <path d="M188 655 l5 5 5-5" fill="none" stroke="#7b8494" stroke-width="1.5"/><rect x="208" y="649" width="18" height="18" rx="4" fill="#7f8ca3"/>
  <rect x="238" y="650" width="16" height="16" rx="3" fill="#1677ff"/><path d="M242 658l3 3 6-7" fill="none" stroke="#fff" stroke-width="1.5"/>
  <text x="266" y="664" class="body" font-weight="600">日志管理</text><text x="336" y="664" class="code">log</text><text x="800" y="664" class="small" fill="#1677ff">全选本组</text><text x="862" y="664" text-anchor="end" class="small muted">6 项</text>
  <line x1="216" y1="684" x2="216" y2="768" stroke="#dce5f2"/>
  <line x1="216" y1="708" x2="242" y2="708" stroke="#dce5f2"/><rect x="250" y="698" width="16" height="16" rx="3" fill="#1677ff"/><path d="M254 706l3 3 6-7" fill="none" stroke="#fff" stroke-width="1.5"/><text x="280" y="711" class="body">登录日志</text><rect x="352" y="693" width="70" height="24" rx="12" fill="#f1f3f6"/><text x="387" y="709" text-anchor="middle" class="code">log:login</text>
  <line x1="216" y1="756" x2="242" y2="756" stroke="#dce5f2"/><rect x="250" y="746" width="16" height="16" rx="3" fill="#1677ff"/><path d="M254 754l3 3 6-7" fill="none" stroke="#fff" stroke-width="1.5"/><text x="280" y="759" class="body">操作日志</text><rect x="352" y="741" width="92" height="24" rx="12" fill="#f1f3f6"/><text x="398" y="757" text-anchor="middle" class="code">log:operation</text>
  <!-- tools -->
  <rect x="170" y="796" width="710" height="48" rx="6" fill="#fafbfd"/><path d="M188 815 l5 5 5-5" fill="none" stroke="#7b8494" stroke-width="1.5"/><rect x="208" y="809" width="18" height="18" rx="4" fill="#7f8ca3"/><rect x="238" y="810" width="16" height="16" rx="3" fill="#fff" stroke="#b5bdc9"/><text x="266" y="824" class="body" font-weight="600">系统工具</text><text x="336" y="824" class="code">tools</text><text x="862" y="824" text-anchor="end" class="small muted">10 项</text>

  <!-- right summary -->
  <rect x="920" y="206" width="366" height="658" rx="10" fill="#f8fafc" stroke="#e2e7ef"/>
  <text x="948" y="240" class="section">授权摘要</text>
  <text x="948" y="282" font-size="27" font-weight="700" fill="#1677ff">18</text><text x="984" y="282" font-size="17" class="muted"> / 36 项</text>
  <rect x="948" y="298" width="310" height="7" rx="4" fill="#e7ebf1"/><rect x="948" y="298" width="155" height="7" rx="4" fill="#1677ff"/>
  <rect x="948" y="325" width="88" height="30" rx="15" fill="#eaf2ff"/><text x="992" y="345" text-anchor="middle" class="small" fill="#1677ff">菜单 8</text>
  <rect x="1045" y="325" width="88" height="30" rx="15" fill="#eef9f2"/><text x="1089" y="345" text-anchor="middle" class="small" fill="#18a058">页面 6</text>
  <rect x="1142" y="325" width="88" height="30" rx="15" fill="#fff5e8"/><text x="1186" y="345" text-anchor="middle" class="small" fill="#d9822b">按钮 4</text>
  <line x1="948" y1="380" x2="1258" y2="380" stroke="#e2e7ef"/>
  <text x="948" y="414" class="section">本次变更</text>
  <rect x="948" y="430" width="100" height="28" rx="6" fill="#eaf8ef"/><text x="998" y="449" text-anchor="middle" class="small" fill="#18a058">＋ 新增 3 项</text>
  <rect x="1058" y="430" width="100" height="28" rx="6" fill="#fff0f0"/><text x="1108" y="449" text-anchor="middle" class="small" fill="#d03050">− 移除 1 项</text>
  <circle cx="956" cy="484" r="8" fill="#eaf8ef"/><text x="956" y="488" text-anchor="middle" class="small" fill="#18a058">+</text><text x="976" y="489" class="body">用户新增</text><text x="1246" y="489" text-anchor="end" class="small muted">system:user:create</text>
  <circle cx="956" cy="520" r="8" fill="#eaf8ef"/><text x="956" y="524" text-anchor="middle" class="small" fill="#18a058">+</text><text x="976" y="525" class="body">用户导出</text><text x="1246" y="525" text-anchor="end" class="small muted">system:user:export</text>
  <circle cx="956" cy="556" r="8" fill="#fff0f0"/><text x="956" y="560" text-anchor="middle" class="small" fill="#d03050">−</text><text x="976" y="561" class="body">菜单删除</text><text x="1246" y="561" text-anchor="end" class="small muted">system:menu:delete</text>
  <text x="948" y="597" class="small" fill="#1677ff">查看全部 4 项变更 →</text>
  <rect x="948" y="624" width="310" height="86" rx="8" fill="#fff8e8" stroke="#f4d99b"/>
  <circle cx="970" cy="648" r="10" fill="#f0a020"/><text x="970" y="652" text-anchor="middle" class="small" fill="#fff">!</text>
  <text x="990" y="651" class="body" font-weight="700" fill="#8c5c00">最小权限原则</text>
  <text x="970" y="680" class="small" fill="#7a6740">请仅授予该角色完成工作所需的权限，</text><text x="970" y="698" class="small" fill="#7a6740">避免无关的高风险操作权限。</text>
  <rect x="948" y="736" width="310" height="38" rx="7" fill="#fff" stroke="#ccd3dd"/><text x="1103" y="760" text-anchor="middle" class="body">↶ 恢复原权限</text>
  <text x="948" y="815" class="small muted">高风险权限</text><circle cx="1024" cy="811" r="4" fill="#d03050"/><text x="1036" y="815" class="small muted">删除、导出、授权等操作将特别标记</text>

  <!-- footer -->
  <line x1="120" y1="884" x2="1320" y2="884" stroke="#e7ebf1"/>
  <text x="154" y="920" class="small muted">上次更新：2026-07-18 14:32</text>
  <rect x="1032" y="898" width="84" height="38" rx="7" fill="#fff" stroke="#cfd6df"/><text x="1074" y="922" text-anchor="middle" class="body">取消</text>
  <rect x="1128" y="898" width="158" height="38" rx="7" fill="#1677ff"/><text x="1207" y="922" text-anchor="middle" class="body" fill="#fff" font-weight="700">保存权限（4 项变更）</text>
</svg>
